<?xml version="1.0" encoding="UTF-8"?>
<svg id="Ebene_1" xmlns="http://www.w3.org/2000/svg" version="1.1" viewBox="0 0 841.9 595.3">
  <!-- Generator: Adobe Illustrator 30.1.0, SVG Export Plug-In . SVG Version: 2.1.1 Build 136)  -->
  <defs>
    <style>
      .st0 {
        fill: #3d675e;
      }

      .st1 {
        fill: #9ad89e;
      }
    </style>
  </defs>
  <polygon class="st0" points="566 244.9 566 244.9 566 39.3 481 39.3 481 193.9 362.4 256.9 362.4 39.3 277.5 39.3 277.5 195.8 158.9 258.8 158.9 39.3 73.9 39.3 73.9 288.1 74.2 288.1 120.6 375.4 190.5 338.3 278.5 291.5 322.5 374.4 566 244.9 566 244.9 566 244.9"/>
  <polygon class="st1" points="769.6 330.2 769.6 133.4 769.6 81.4 769.6 39.3 626.1 114.8 625.3 212.6 684.6 180 684.6 375.4 769.6 330.2 769.6 330.2"/>
  <path class="st0" d="M121.9,555.7l17.5-59.7,17.7,59.7h22l26.9-89.1h-21.9l-17.3,64.9-18-64.9h-18.7l-17.8,64.9-17.3-64.9h-21.9l26.9,89.1h22ZM281.1,550.2c7.2-5,12-11.8,14.4-20.5l-21.9-1.3c-1.2,3.9-3.4,6.9-6.6,9.1-3.2,2.2-7.1,3.3-11.9,3.3s-11.4-2-15.3-5.9c-3.8-3.9-6-9.8-6.4-17.6h63.2v-4.8c0-10-1.7-18.6-5.2-25.7-3.4-7.1-8.4-12.6-14.8-16.3-6.4-3.8-13.8-5.7-22.3-5.7s-16.3,1.9-22.8,5.8c-6.5,3.9-11.5,9.3-15.1,16.3-3.6,7-5.3,15.1-5.3,24.4s1.8,17.5,5.3,24.5c3.6,7,8.6,12.4,15.2,16.3,6.6,3.8,14.3,5.8,23.2,5.8s18.9-2.5,26.1-7.5h0ZM240.4,486.9c3.7-3.7,8.4-5.5,14.1-5.5s10.3,1.8,14,5.3c3.7,3.5,5.7,8.9,6.2,16.1h-41.2c.9-6.9,3.2-12.2,6.9-15.8h0ZM334.7,555.7v-51.4c0-4.6.8-8.3,2.3-11.1,1.5-2.8,3.8-4.9,6.8-6.3,3-1.3,6.8-2,11.3-2h8.3v-18.3h-8.2c-6.5,0-11.5,1.9-15.3,5.8-3.7,3.8-6.3,10-7.6,18.6l1.8.3-.8-24.7h-20v89.1h21.3ZM398.6,555.7v-24.5l14-14.8,26,39.4h24l-36-52,34.9-37h-26.4l-36.5,40.2v-69.6h-21.4v118.4h21.4Z"/>
  <path class="st1" d="M535.3,550.1c6.5-5.1,10.9-11.5,13.3-19.4l-15-1.2c-1.4,4.4-4,8-7.8,10.8-3.7,2.7-8.5,4.1-14.3,4.1s-13.8-2.4-18.3-7.2c-4.5-4.8-7-11.9-7.6-21.3h64.2v-4.2c0-9.9-1.6-18.3-4.9-25.2-3.3-6.9-7.9-12.1-13.8-15.8-5.9-3.6-12.7-5.4-20.3-5.4s-15.2,1.9-21.1,5.8c-6,3.8-10.6,9.2-13.8,16.1-3.3,6.9-4.9,15-4.9,24.4s1.6,17.5,4.9,24.4c3.3,7,7.9,12.3,14,16.1,6.1,3.8,13.3,5.7,21.6,5.7s17.3-2.5,23.8-7.6h0ZM494.1,484.9c4.4-4.2,10-6.3,16.8-6.3s12,2,16.3,6c4.3,4,6.8,10.3,7.4,18.8h-48.9c1.2-8.2,4-14.4,8.4-18.6h0ZM582.9,555.7v-88.4h-14v88.4h14ZM583.2,453.4v-16.3h-14.7v16.3h14.7ZM621.9,555.7v-52.9c0-8.2,2.2-14.5,6.6-18.8,4.4-4.3,10-6.4,16.8-6.4s8.1,1,10.8,2.9c2.8,1.9,4.8,4.8,6.1,8.5,1.3,3.7,1.9,8.3,1.9,13.8v52.9h14v-56.9c0-6.2-1.1-11.9-3.3-16.9-2.2-5.1-5.4-9.1-9.8-12.1-4.4-3-10-4.5-16.8-4.5s-8.8.8-12.8,2.5c-3.9,1.7-7.3,4.2-10.1,7.6-2.8,3.4-4.7,7.7-5.8,12.9l1.7,1.5-.5-22.5h-12.8v88.4h14ZM752.6,554.7c5.2-2,9.3-4.9,12.3-8.8,3.1-3.8,4.6-8.5,4.6-13.9s-1-8.6-3-11.8c-2-3.2-5.5-5.9-10.5-8.2-5-2.2-12-4.1-21-5.7-5.2-.9-9.4-1.9-12.5-3.1-3.1-1.2-5.4-2.7-6.8-4.5-1.4-1.8-2.1-4.2-2.1-7.1s1.5-6.9,4.5-9.3c3-2.4,7.7-3.7,14-3.7s7.4.7,10.3,2.1c2.9,1.4,5.2,3.3,7,5.7,1.8,2.4,3,5.1,3.7,8.3l14.7-1c-.9-5.1-2.8-9.8-5.6-14.1-2.8-4.3-6.7-7.7-11.7-10.3-4.9-2.6-11-3.9-18.3-3.9-10.7,0-18.9,2.5-24.7,7.6-5.8,5.1-8.7,11.5-8.7,19.4s1,8.7,3.1,12.1c2.1,3.4,5.5,6.2,10.3,8.5,4.8,2.3,11.5,4.2,19.9,5.8,6.3,1.1,11.1,2.3,14.3,3.4,3.2,1.2,5.4,2.5,6.5,4.1,1.1,1.6,1.7,3.5,1.7,5.8,0,4.3-1.8,7.5-5.4,9.4-3.6,1.9-8.4,2.9-14.4,2.9s-13-1.6-16.7-4.8c-3.7-3.2-6-7.4-6.8-12.8l-14.7,1c.4,5.8,2.2,10.9,5.3,15.4,3.1,4.5,7.3,8,12.8,10.6,5.5,2.6,12.2,3.8,20.1,3.8s12.4-1,17.6-3h0Z"/>
</svg>